<mxfile host="app.diagrams.net" modified="2024-06-14T06:06:58.884Z" agent="Mozilla/5.0 (Windows NT 10.0; Win64; x64) AppleWebKit/537.36 (KHTML, like Gecko) Chrome/122.0.0.0 Safari/537.36" version="24.5.4" etag="NrkJIxytPTH42UbIYcDr" type="github">
  <diagram name="Page-1" id="2YgY0Vx2bapCxJkpWJnV">
    <mxGraphModel>
      <root>
        <mxCell id="0" />
        <mxCell id="1" parent="0" />
      </root>
    </mxGraphModel>
  </diagram>
</mxfile>
